<svg xmlns="http://www.w3.org/2000/svg" width="40" height="40" viewBox="0 0 40 40"><g fill="#3D82F0" fill-rule="nonzero"><path d="M0 7.875v-6.25C0 1.28.28 1 .625 1h6.25a.625.625 0 010 1.25H1.25v5.625a.625.625 0 01-1.25 0zM39.375 1h-6.25a.625.625 0 000 1.25h5.625v5.625a.625.625 0 001.25 0v-6.25A.625.625 0 0039.375 1zm-32.5 38.75H1.25v-5.625a.625.625 0 00-1.25 0v6.25c0 .345.28.625.625.625h6.25a.625.625 0 000-1.25zm32.5-6.25a.625.625 0 00-.625.625v5.625h-5.625a.625.625 0 000 1.25h6.25c.345 0 .625-.28.625-.625v-6.25a.625.625 0 00-.625-.625z"/><g stroke="#3D82F0" stroke-width=".2"><path d="M14.11 31.791l5.08-6.786c.146.018.25.068.397.086.982.12 1.91-.212 2.573-.8l2.5 5.817a5.783 5.783 0 004.598 3.469l.655.08c3.166.389 6.07-1.898 6.461-5.09.392-3.19-1.872-6.112-5.038-6.5l-8.116-.997a3.376 3.376 0 00-2.281-2.477l3.764-5.086a5.945 5.945 0 00.671-5.763l-.26-.591c-1.227-2.944-4.64-4.33-7.564-3.087-1.987.835-3.244 2.654-3.491 4.672a5.99 5.99 0 00.408 2.992l3.23 7.694a3.376 3.376 0 00-.98 1.965 3.14 3.14 0 00.096 1.315l-6.263-.732c-2.04-.25-4.07.654-5.27 2.295l-.394.51a5.985 5.985 0 00-1.12 2.804c-.248 2.017.531 4.086 2.257 5.377a5.718 5.718 0 004.295 1.124c1.506-.225 2.865-1.064 3.791-2.29zm17.118-8.844c2.693.33 4.606 2.799 4.273 5.513s-2.787 4.647-5.48 4.317l-.655-.08a4.946 4.946 0 01-3.924-2.94l-2.673-6.21a3.57 3.57 0 00.462-1.36l.031-.256 7.97.979-.004.037zM15.244 11.415a4.838 4.838 0 01-.014-3.8c.485-1.244 1.454-2.205 2.662-2.726a4.73 4.73 0 013.77-.02c1.235.485 2.186 1.458 2.702 2.676l.26.59c.689 1.611.459 3.482-.604 4.915l-4.033 5.463a3.581 3.581 0 00-1.563.403l-3.18-7.501zm2.346 10.08a2.467 2.467 0 012.74-2.159 2.467 2.467 0 012.137 2.757 2.466 2.466 0 01-2.74 2.159 2.466 2.466 0 01-2.137-2.757zM6.55 32.279c-2.162-1.643-2.594-4.75-.954-6.969l.395-.51c1.058-1.396 2.776-2.153 4.486-1.943l6.774.794c.278.444.679.791 1.125 1.07l-4.945 6.578c-.795 1.057-1.95 1.734-3.268 1.945a5.191 5.191 0 01-3.613-.965zm22.086 2.45c.2-.123.268-.376.108-.58-.123-.203-.372-.271-.578-.11a14.024 14.024 0 01-8.183 2.272c-.223.01-.428.17-.456.391l-.004.037c.01.225.169.43.424.461 3.097.046 6.117-.775 8.689-2.47z"/><path d="M26.471 8.735c-.004.036-.045.068-.054.141-.023.184.068.344.241.44 2.026.956 3.8 2.44 5.131 4.242.124.2.415.236.583.072a.388.388 0 00.072-.588 14.947 14.947 0 00-5.432-4.502c-.172-.095-.441-.017-.54.195zm-.525 24.435c-1.769.863-3.746 1.327-5.698 1.274-.223.01-.427.17-.454.39l-.005.037c.01.225.17.431.429.426 2.101.034 4.224-.412 6.111-1.335.2-.125.305-.372.181-.574-.082-.233-.332-.301-.564-.218zm.815-22.278a.332.332 0 00-.06.18.5.5 0 00.206.434c1.41.844 2.636 1.999 3.615 3.348a.41.41 0 00.578.108.417.417 0 00.109-.582 12.236 12.236 0 00-3.884-3.568.367.367 0 00-.564.08zm-1.83 21.222a.426.426 0 00-.56-.255c-1.32.508-2.72.784-4.116.724-.223.01-.427.171-.454.39l-.005.037c.01.225.169.431.424.462 1.547.041 3.02-.225 4.456-.792a.434.434 0 00.255-.566zm.963-19.578a.332.332 0 00-.06.179.5.5 0 00.206.434c1.165.74 2.162 1.644 2.983 2.787a.408.408 0 00.577.108.414.414 0 00.109-.581 11.156 11.156 0 00-3.215-3.003c-.2-.173-.468-.094-.6.076zM6.85 21.406a14.433 14.433 0 011.542-7.444c.1-.212.021-.481-.188-.583-.21-.099-.477-.02-.577.191a15.256 15.256 0 00-1.586 5.092c-.112.917-.157 1.88-.087 2.82.009.223.21.398.469.392.3-.038.472-.24.427-.469zM9.59 14.74a.426.426 0 00-.582.227 13.841 13.841 0 00-1.114 3.959c-.086.697-.135 1.398-.07 2.077.009.224.205.434.428.425.223-.01.431-.209.422-.433a12.615 12.615 0 011.135-5.632c.072-.289-.01-.522-.22-.622zm.132 4.336c-.067.55-.103 1.142-.098 1.7.01.225.206.436.429.426.222-.01.431-.209.422-.432-.042-1.458.206-2.88.782-4.261.1-.21-.014-.486-.228-.55-.21-.1-.483.016-.546.232a11.47 11.47 0 00-.76 2.885z"/></g></g></svg>