<svg xmlns="http://www.w3.org/2000/svg" width="40" height="40" viewBox="0 0 40 40"><g fill="#3D82F0" fill-rule="nonzero"><path d="M0 6.875V.625C0 .28.28 0 .625 0h6.25a.625.625 0 010 1.25H1.25v5.625a.625.625 0 01-1.25 0zM39.375 0h-6.25a.625.625 0 000 1.25h5.625v5.625a.625.625 0 001.25 0V.625A.625.625 0 0039.375 0zm-32.5 38.75H1.25v-5.625a.625.625 0 00-1.25 0v6.25c0 .345.28.625.625.625h6.25a.625.625 0 000-1.25zm32.5-6.25a.625.625 0 00-.625.625v5.625h-5.625a.625.625 0 000 1.25h6.25c.345 0 .625-.28.625-.625v-6.25a.625.625 0 00-.625-.625z"/><path d="M19 2.527l.704 1.017c.074.108.208.303.388.57 1.933 2.905 6.608 10.254 6.608 14.18 0 2.04-.863 3.89-2.254 5.23A7.833 7.833 0 0119 25.7a7.833 7.833 0 01-5.446-2.176c-1.391-1.34-2.254-3.19-2.254-5.23 0-3.925 4.673-11.272 6.411-13.885.345-.515.487-.722.565-.836l.02-.029L19 2.527zm-.252 3.33c-2.206 3.402-5.762 9.542-5.762 12.438 0 1.601.675 3.054 1.767 4.106 1.088 1.048 2.59 1.697 4.247 1.697s3.159-.65 4.247-1.697c1.092-1.052 1.767-2.505 1.767-4.106 0-2.897-3.556-9.036-6.266-12.438zM11.499 29.3c2.342 0 3.568.578 4.651 1.088 1.045.491 1.943.912 3.845.912 1.906 0 2.806-.421 3.845-.911 1.087-.51 2.316-1.089 4.658-1.089 2.341 0 3.57.578 4.653 1.087.987.465 1.846.867 3.549.91h0v1.4c-2.149-.047-3.317-.597-4.353-1.084-1.044-.492-1.943-.913-3.85-.913-1.905 0-2.805.421-3.844.911-1.087.51-2.316 1.089-4.658 1.089-2.34 0-3.567-.578-4.65-1.087-1.043-.492-1.941-.913-3.846-.913-1.904 0-2.803.421-3.843.91-1.038.49-2.206 1.04-4.356 1.088h0v-1.4c1.702-.043 2.56-.445 3.544-.908 1.088-.511 2.315-1.089 4.655-1.089zm16.999 4c2.341 0 3.57.578 4.653 1.087.987.465 1.846.867 3.549.91h0v1.4c-2.149-.047-3.317-.597-4.353-1.084-1.044-.492-1.943-.913-3.85-.913-1.905 0-2.805.421-3.844.911-1.087.51-2.316 1.089-4.658 1.089-2.34 0-3.567-.578-4.65-1.087-1.043-.492-1.941-.913-3.846-.913-1.904 0-2.803.421-3.843.91-1.038.49-2.206 1.04-4.356 1.088h0v-1.4c1.702-.043 2.56-.445 3.544-.908 1.088-.511 2.315-1.089 4.655-1.089 2.342 0 3.568.578 4.651 1.088 1.045.491 1.943.912 3.845.912 1.906 0 2.806-.421 3.845-.911 1.087-.51 2.316-1.089 4.658-1.089h0z" stroke="#FFF" stroke-width=".6"/></g></svg>