<svg xmlns="http://www.w3.org/2000/svg" width="40" height="40"><path d="M0 6.875V.625C0 .28.28 0 .625 0h6.25a.625.625 0 010 1.25H1.25v5.625a.625.625 0 01-1.25 0zM39.375 0h-6.25a.625.625 0 000 1.25h5.625v5.625a.625.625 0 001.25 0V.625A.625.625 0 0039.375 0zm-32.5 38.75H1.25v-5.625a.625.625 0 00-1.25 0v6.25c0 .345.28.625.625.625h6.25a.625.625 0 000-1.25zm32.5-6.25a.625.625 0 00-.625.625v5.625h-5.625a.625.625 0 000 1.25h6.25c.345 0 .625-.28.625-.625v-6.25a.625.625 0 00-.625-.625z" fill="#3D82F0"/><path d="M7.756 36.398c-1.8-.39-3.097-2-3.1-3.845-.002-.672.092-1.081.392-1.71.645-1.352 1.894-2.153 3.512-2.252l.67-.04v-1.97l.17-.133c.16-.126.252-.134 1.486-.134 1.726 0 1.632-.074 1.632 1.286v.97H13.733l.02-.973.021-.972.181-.156c.179-.153.199-.155 1.502-.155 1.732 0 1.637-.075 1.637 1.286v.97h1.224v-.907c0-.91.039-1.102.253-1.266.144-.111 2.702-.111 2.847 0 .213.164.252.356.252 1.266v.907h1.224v-.97c0-1.36-.095-1.286 1.637-1.286 1.303 0 1.324.002 1.502.155l.18.156.022.972.02.973h1.216v-.97c0-1.36-.095-1.286 1.632-1.286 1.233 0 1.326.008 1.485.134l.17.133V28.55l.67.041c1.225.075 2.084.465 2.866 1.301.434.464.852 1.249.97 1.823.437 2.128-.94 4.236-3.062 4.686-.647.137-23.813.134-24.446-.003zm24.517-1.125c.533-.184.86-.391 1.214-.77a2.867 2.867 0 00-.518-4.36c-.777-.515.24-.477-12.975-.477-11.15 0-11.787.006-12.186.116-2.05.569-2.77 3.157-1.312 4.716.36.384.62.554 1.15.751l.392.146 11.93.004c11.776.003 11.935.001 12.305-.126zM8.285 34.17c-1.268-.235-1.79-1.786-.919-2.73a1.657 1.657 0 012.711.369c.61 1.196-.46 2.607-1.792 2.36zm.683-1.192c.52-.438-.03-1.276-.633-.964-.384.198-.449.634-.14.943.24.24.504.247.773.021zm3.881 1.19c-1.097-.202-1.669-1.357-1.167-2.36.306-.613.788-.911 1.48-.915.655-.005 1.35.473 1.552 1.067.416 1.222-.612 2.439-1.865 2.208zm.705-1.211c.332-.333.22-.823-.222-.97-.377-.124-.753.127-.764.509-.016.576.588.859.986.46zm3.884 1.21c-1.582-.276-1.895-2.396-.46-3.112.624-.31 1.47-.167 1.933.325.408.435.571 1.258.353 1.78a1.695 1.695 0 01-1.826 1.007zm.694-1.19c.306-.276.176-.857-.222-.989-.321-.106-.636.05-.761.377-.084.218.047.567.256.685.206.115.558.08.727-.072zm3.844 1.191c-.364-.054-.673-.234-.954-.554-.283-.322-.39-.608-.392-1.05-.005-.954.706-1.673 1.656-1.674.925-.002 1.637.713 1.637 1.643 0 1.051-.884 1.794-1.947 1.635zm.594-1.119c.343-.177.392-.683.09-.942a.582.582 0 00-.962.554c.077.41.48.59.872.388zm3.955 1.12c-.985-.181-1.582-1.236-1.25-2.209.201-.594.896-1.071 1.551-1.067.692.004 1.174.302 1.48.915.423.846.107 1.805-.724 2.197-.398.188-.689.233-1.057.165zm.581-1.096c.314-.143.421-.653.192-.909-.18-.199-.395-.258-.642-.176-.442.146-.554.636-.222.969.2.2.41.236.672.116zm3.983 1.095c-.824-.152-1.428-.945-1.344-1.765.15-1.445 1.895-2.03 2.877-.964 1.065 1.156.021 3.015-1.533 2.729zm.705-1.211c.308-.309.243-.745-.14-.943-.402-.208-.832.078-.832.554 0 .193.042.278.198.41.27.226.534.219.774-.021zm-20.321-4.984l-.019-.597-.596-.018-.596-.019v1.23h1.229zm4.576 0l-.019-.597-.596-.018-.596-.019v1.23h1.229zm4.525-.017v-.612h-1.16v1.225h1.16zm4.576-.002v-.615l-.596.019-.596.018-.019.597-.018.596h1.229zm4.576 0v-.615l-.596.019-.596.018-.018.597-.019.596h1.229zm-5.513-3.024c-.157-.157-.158-.167-.158-1.412v-1.254l-.248-.042c-.304-.052-.705-.37-.824-.656-.062-.148-.089-.504-.089-1.18v-.97h-5.22v.39c0 .33-.025.415-.16.55l-.16.16-3.563-.018c-3.557-.018-3.562-.018-3.932-.168-1.642-.663-2.29-2.656-1.34-4.124.132-.204.36-.474.508-.6.258-.222.325-.373 1.812-4.117 1.442-3.63 1.538-3.897 1.458-4.054a1.834 1.834 0 01-.13-.372l-.044-.204-.704-.021c-.67-.021-.712-.03-.882-.2-.176-.177-.179-.191-.2-1.107l-.02-.927-.968-.022-.968-.022-.155-.18c-.25-.29-.188-.63.146-.808.104-.056 1.796-.075 6.531-.075h6.39l.188.188c.23.23.241.452.033.694l-.155.181-.973.022-.972.022v.751c-.001 1.334-.125 1.492-1.168 1.493h-.62l-.082.293c-.045.161-.206.488-.358.725-.177.276-.741 1.576-1.565 3.603a314.278 314.278 0 00-1.33 3.304c-.041.13-.025.132 1.442.132.95 0 1.54.025 1.64.071.212.096.3.315.3.737v.352h2.682c2.647 0 2.683-.002 2.877-.14 1.038-.739 2.439-.504 3.149.527.297.432.389.73.389 1.265 0 .478-.134.939-.365 1.25-.153.209-.159.254-.16 1.22 0 .55-.032 1.117-.07 1.257-.096.344-.423.657-.79.755l-.3.08v1.176c0 1.253-.035 1.441-.3 1.562-.241.11-.4.086-.572-.087zm.937-4.402v-.628h-1.224V21.158h1.224zm-13.49-1.28c.599-.286.93-.835.93-1.54 0-.65-.256-1.1-.852-1.494-.34-.225-1.079-.284-1.505-.122-.366.14-.785.547-.953.925-.33.747-.038 1.73.639 2.149.555.343 1.14.37 1.742.082zm4.95-1.54v-1.74l-1.756-.017c-.966-.01-1.756 0-1.756.022s.06.125.134.228c.208.292.394.883.43 1.365.04.53-.105 1.13-.378 1.56a2.425 2.425 0 00-.186.326c0 .017.79.023 1.756.014l1.756-.017zm8.46 1.056c.671-.325.87-1.223.39-1.77-.264-.3-.526-.428-.885-.433-.59-.007-1.087.403-1.149.95-.068.61.155 1.04.658 1.269.344.156.64.151.986-.016zm-2.723-1.056v-.612h-4.673v1.225h4.673zm-8.098-5.688c.644-1.586 1.17-2.898 1.17-2.916-.001-.018-.286-.032-.633-.032-.603 0-.655-.012-1.133-.248-.275-.136-.509-.238-.518-.225-.015.018-2.337 5.87-2.458 6.193-.04.105.043.113 1.18.113h1.222zm1.32-4.118c.375-.192.572-.362.759-.657.102-.161.186-.317.186-.345 0-.029-.74-.052-1.644-.052-.904 0-1.644.016-1.644.035 0 .124.289.559.487.733.504.442 1.307.566 1.855.286zm2.75-2.73v-.58h-6.897v1.16h6.896z" fill="#3d82f0"/></svg>