<svg xmlns="http://www.w3.org/2000/svg" width="40" height="40" viewBox="0 0 40 40"><g fill="#3D82F0" fill-rule="nonzero"><path d="M0 6.875V.625C0 .28.28 0 .625 0h6.25a.625.625 0 010 1.25H1.25v5.625a.625.625 0 01-1.25 0zM39.375 0h-6.25a.625.625 0 000 1.25h5.625v5.625a.625.625 0 001.25 0V.625A.625.625 0 0039.375 0zm-32.5 38.75H1.25v-5.625a.625.625 0 00-1.25 0v6.25c0 .345.28.625.625.625h6.25a.625.625 0 000-1.25zm32.5-6.25a.625.625 0 00-.625.625v5.625h-5.625a.625.625 0 000 1.25h6.25c.345 0 .625-.28.625-.625v-6.25a.625.625 0 00-.625-.625z"/><g stroke="#FFF" stroke-width=".4"><path d="M18.22 3.2h14.22a.689.689 0 01.681.578l.009.112v3.552a.68.68 0 01-.58.681l-.11.007h-3.75v2.18h2.87a4.245 4.245 0 012.999 1.248 4.241 4.241 0 011.235 2.77l.006.232v7.11a4.23 4.23 0 01-1.242 2.998 4.23 4.23 0 01-2.765 1.236l-.233.006h-2.87v2.18h6.42a.689.689 0 01.681.578l.009.112v5.33a.689.689 0 01-.578.681l-.112.009H4.89a.689.689 0 01-.681-.578L4.2 34.11v-5.33a.689.689 0 01.578-.681l.112-.009h1.98V18.8H4.89a.689.689 0 01-.488-1.178c.1-.1.23-.17.376-.193l.112-.009h1.98V11a.689.689 0 01.578-.681l.112-.009h3.55a.689.689 0 01.681.578L11.8 11v3.31h3.095a4.225 4.225 0 011.381-2.897 4.233 4.233 0 012.585-1.095l.249-.008h2.87V8.13h-3.76a.689.689 0 01-.681-.578l-.009-.112V3.89a.689.689 0 01.69-.69zm16.2 26.27H5.58v3.95h28.84v-3.95zm-19.525-7.56H11.8v6.18h10.18v-2.18h-2.87l-.249-.008a4.235 4.235 0 01-2.585-1.095 4.225 4.225 0 01-1.381-2.897h0zm-6.655 4v2.18h2.18v-2.18H8.24zm19.07 0h-3.95v2.18h3.95v-2.18zM10.42 11.69H8.24v12.84h2.18V11.69zm21.14 0H19.11l-.214.009a2.867 2.867 0 00-1.812.835 2.864 2.864 0 00-.844 2.025h0v7.111l.009.214a2.869 2.869 0 002.861 2.646h12.45l.206-.007a2.865 2.865 0 002.654-2.853h0v-7.11l-.008-.214a2.863 2.863 0 00-.829-1.812 2.86 2.86 0 00-2.022-.844h0zm-16.69 4H11.8v4.84h3.07v-4.84zm12.44-7.56h-3.95v2.18h3.95V8.13zm4.45-3.55H18.91v2.18h12.85V4.58z"/><path d="M31.55 13.87a.689.689 0 01-.001 1.37h0-12.45a.692.692 0 01-.668-1.051h0zm.01 3.55a.689.689 0 01.488 1.178.687.687 0 01-.488.202h0-12.45a.689.689 0 01-.488-1.178.687.687 0 01.488-.202h0zm0 3.56a.689.689 0 01.488 1.178.687.687 0 01-.488.202h0-12.45a.689.689 0 01-.488-1.178.687.687 0 01.488-.202h0z"/></g></g></svg>