<svg xmlns="http://www.w3.org/2000/svg" width="40" height="40" viewBox="0 0 40 40"><path d="M0 6.875V.625C0 .28.28 0 .625 0h6.25a.625.625 0 010 1.25H1.25v5.625a.625.625 0 01-1.25 0zM39.375 0h-6.25a.625.625 0 000 1.25h5.625v5.625a.625.625 0 001.25 0V.625A.625.625 0 0039.375 0zm-32.5 38.75H1.25v-5.625a.625.625 0 00-1.25 0v6.25c0 .345.28.625.625.625h6.25a.625.625 0 000-1.25zm32.5-6.25a.625.625 0 00-.625.625v5.625h-5.625a.625.625 0 000 1.25h6.25c.345 0 .625-.28.625-.625v-6.25a.625.625 0 00-.625-.625zm-19.104 4.938a.628.628 0 01-.542 0l-15.625-7.5a.666.666 0 01-.354-.563v-18.75a.652.652 0 01.354-.563l15.625-7.5a.628.628 0 01.542 0l15.625 7.5a.652.652 0 01.354.563v18.75a.656.656 0 01-.354.563l-15.625 7.5zM5 28.982l14.375 6.9V18.518L5 11.618v17.364zm15.625 6.9L35 28.982V11.618l-14.375 6.9v17.364zM5.819 10.625L20 17.432l14.18-6.807L20 3.818 5.82 10.625z" fill="#3D82F0" fill-rule="nonzero"/></svg>