<svg xmlns="http://www.w3.org/2000/svg" width="40" height="40" viewBox="0 0 40 40"><g fill="#3D82F0" fill-rule="nonzero"><path d="M0 6.875V.625C0 .28.28 0 .625 0h6.25a.625.625 0 010 1.25H1.25v5.625a.625.625 0 01-1.25 0zM39.375 0h-6.25a.625.625 0 000 1.25h5.625v5.625a.625.625 0 001.25 0V.625A.625.625 0 0039.375 0zm-32.5 38.75H1.25v-5.625a.625.625 0 00-1.25 0v6.25c0 .345.28.625.625.625h6.25a.625.625 0 000-1.25zm32.5-6.25a.625.625 0 00-.625.625v5.625h-5.625a.625.625 0 000 1.25h6.25c.345 0 .625-.28.625-.625v-6.25a.625.625 0 00-.625-.625z"/><path d="M35.576 34H4.424C3.638 34 3 33.328 3 32.5S3.638 31 4.424 31h31.152c.786 0 1.424.672 1.424 1.5s-.638 1.5-1.424 1.5zM13.5 29c-.378 0-.757-.134-1.052-.405a1.424 1.424 0 01-.05-2.07 5.305 5.305 0 001.554-3.757c0-.975-1.011-2.908-1.73-3.97C11.997 18.466 10 15.46 10 13.233c0-2.17.851-4.222 2.397-5.778a1.569 1.569 0 012.155-.05c.61.56.632 1.486.051 2.07a5.304 5.304 0 00-1.555 3.758c0 .975 1.011 2.908 1.73 3.97.227.333 2.222 3.338 2.222 5.566 0 2.17-.851 4.222-2.397 5.779-.3.3-.701.453-1.103.453zm7 0c-.378 0-.757-.134-1.052-.405a1.424 1.424 0 01-.05-2.07 5.303 5.303 0 001.554-3.757c0-.975-1.011-2.908-1.73-3.97C18.997 18.465 17 15.46 17 13.232c0-2.17.851-4.222 2.397-5.779a1.57 1.57 0 012.155-.049c.61.559.632 1.486.051 2.07a5.302 5.302 0 00-1.555 3.758c0 .974 1.011 2.908 1.73 3.97.226.333 2.222 3.338 2.222 5.566 0 2.17-.851 4.222-2.397 5.779-.3.3-.701.453-1.103.453zm7 0c-.378 0-.756-.134-1.051-.405a1.422 1.422 0 01-.051-2.07 5.305 5.305 0 001.554-3.757c0-.975-1.011-2.908-1.729-3.97C25.996 18.465 24 15.46 24 13.232c0-2.17.851-4.222 2.398-5.779a1.57 1.57 0 012.155-.049c.608.559.631 1.486.05 2.07a5.304 5.304 0 00-1.555 3.758c0 .974 1.011 2.908 1.73 3.97.226.333 2.222 3.338 2.222 5.566a8.157 8.157 0 01-2.397 5.778c-.299.302-.7.454-1.103.454z" stroke="#FFF" stroke-width="1.6"/></g></svg>