<svg width="131" height="132" xmlns="http://www.w3.org/2000/svg"><path d="M130.786 66.033c0 36.102-29.273 65.37-65.383 65.37S.021 102.134.021 66.032 29.294.663 65.403.663c36.11 0 65.383 29.267 65.383 65.37" fill-opacity=".5" fill="#E9EFF9"/><path d="M41.041 53.758l6.123 23h5.484l6.632-23z" fill="#E6EBF6"/><path d="M55.344 54.171h-2.59l-1.624-2.137a2.852 2.852 0 00-2.274-1.13H38.41a1.423 1.423 0 00-1.367 1.812l7.71 27.14h42.363l6.627-23.545a1.949 1.949 0 00-1.875-2.478H71.006l-.375-1.39a2.079 2.079 0 00-2.009-1.537h-10.3c-.96 0-1.806.639-2.068 1.564l-6.543 23.104h-2.14l-4.847-17.686 12.62-3.717z" fill="#F6F7FB"/><path d="M42.724 57.888l4.847 17.686h2.14l6.543-23.104a2.151 2.151 0 012.068-1.564h10.3c.942 0 1.764.63 2.009 1.537l.375 1.39h20.862a1.949 1.949 0 011.875 2.478l-6.627 23.545H44.753l-7.71-27.14a1.423 1.423 0 011.367-1.812h10.446c.894 0 1.734.418 2.274 1.13l1.624 2.137h2.59" stroke="#838DAA" fill="none"/></svg>