<svg width="131" height="131" xmlns="http://www.w3.org/2000/svg"><path d="M130.808 65.45c0 36.102-29.273 65.37-65.383 65.37S.043 101.551.043 65.449 29.316.08 65.425.08c36.11 0 65.383 29.267 65.383 65.37" fill="#E9EFF9" opacity=".5"/><path d="M78.579 52.285v30.101a2.868 2.868 0 01-2.867 2.869H45.445a2.87 2.87 0 01-2.869-2.869V44.015a2.869 2.869 0 012.87-2.867h22.085l11.048 11.137z" stroke="#838DAA" fill="#E6EBF6"/><path d="M83.426 57.13v30.102a2.868 2.868 0 01-2.867 2.869H50.292a2.87 2.87 0 01-2.869-2.869V48.86a2.868 2.868 0 012.87-2.866h22.085L83.426 57.13z" stroke="#838DAA" fill="#E6EBF6"/><path d="M88.273 61.977v30.1a2.867 2.867 0 01-2.867 2.868H55.139a2.869 2.869 0 01-2.869-2.868V53.706a2.869 2.869 0 012.869-2.867h22.086l11.047 11.138h.001z" stroke="#838DAA" fill="#E6EBF6"/><path d="M88.273 62.745h-8.984a2.269 2.269 0 01-2.268-2.268v-9.101m1.131 19.453h-16.4c-.6 0-1.093-.493-1.093-1.093s.493-1.093 1.093-1.093h16.4c.6 0 1.093.492 1.093 1.093 0 .6-.493 1.093-1.093 1.093m0 4.846h-16.4c-.6 0-1.093-.493-1.093-1.093s.493-1.093 1.093-1.093h16.4c.6 0 1.093.492 1.093 1.093 0 .6-.493 1.093-1.093 1.093m0 4.845h-16.4c-.6 0-1.093-.492-1.093-1.093 0-.6.493-1.092 1.093-1.092h16.4c.6 0 1.093.492 1.093 1.092 0 .601-.493 1.093-1.093 1.093m0 4.847h-16.4c-.6 0-1.093-.493-1.093-1.094 0-.6.493-1.093 1.093-1.093h16.4c.6 0 1.093.493 1.093 1.093s-.493 1.093-1.093 1.093" fill="#838DAA"/></svg>
