<svg width="24" height="24" xmlns="http://www.w3.org/2000/svg"><path d="M2 12C2 6.48 6.48 2 12 2s10 4.48 10 10-4.48 10-10 10S2 17.52 2 12z" fill="#3D82F0"/><path d="M10.067 15.4c-.772 0-1.4-.629-1.4-1.4 0-.771.628-1.4 1.4-1.4.777 0 1.4.629 1.4 1.4 0 .771-.623 1.4-1.4 1.4m-2.972-1.011l-.845.662a.2.2 0 00-.046.258l.8 1.382a.2.2 0 00.246.086l.994-.4c.206.16.434.292.674.394l.154 1.058a.197.197 0 00.195.171h1.6a.203.203 0 00.2-.171l.148-1.058c.246-.102.469-.234.675-.394l1 .4c.085.034.194 0 .24-.086l.8-1.382a.2.2 0 00-.046-.258l-.846-.662.029-.389-.029-.394.846-.657a.202.202 0 00.046-.258l-.8-1.382a.192.192 0 00-.24-.092l-1 .406a2.746 2.746 0 00-.675-.394l-.148-1.063a.203.203 0 00-.2-.166h-1.6a.197.197 0 00-.195.166l-.154 1.063c-.24.097-.468.234-.674.394l-.994-.406a.196.196 0 00-.246.092l-.8 1.382a.202.202 0 00.046.258l.845.657-.028.394.028.389m8.235-4.92a.9.9 0 11.006-1.8.9.9 0 01-.006 1.8m-1.909-.646l-.554.423a.136.136 0 00-.017.165l.514.892c.028.057.097.08.154.057l.64-.257.423.251.109.68a.129.129 0 00.125.109h1.029a.13.13 0 00.131-.109l.092-.68.434-.251.651.257c.052.023.115 0 .15-.057l.513-.892a.13.13 0 00-.028-.165l-.543-.423.017-.252-.017-.251.543-.423a.13.13 0 00.028-.166l-.514-.891c-.034-.057-.097-.08-.149-.057l-.645.257-.44-.251-.092-.68A.13.13 0 0015.844 6h-1.029a.129.129 0 00-.125.109l-.109.68-.423.251-.64-.257a.122.122 0 00-.154.057l-.514.891a.136.136 0 00.017.166l.554.423-.017.251.017.252z" fill="#FFF"/></svg>
