<svg xmlns="http://www.w3.org/2000/svg" width="132" height="132"><path d="M65.425 131.355c-36.11 0-65.382-29.267-65.382-65.37C.042 29.884 29.316.616 65.425.616c36.11 0 65.383 29.268 65.383 65.37 0 36.103-29.273 65.37-65.383 65.37z" fill="#EEF2F9" /><path d="M86.283 71.558c.163.06.311.165.422.304l.075.11 1.122 2a10.812 10.812 0 013.805-.075l.42.075 1.113-1.985a.956.956 0 011.114-.376 12.608 12.608 0 013.591 2.132.922.922 0 01.32.558c.03.17.013.35-.058.521l-.062.126-1.12 1.999a9.502 9.502 0 011.972 3.329l.11.339h2.284c.232 0 .446.086.613.228.17.145.29.348.33.573.221 1.395.221 2.817.002 4.203a.987.987 0 01-.332.582.949.949 0 01-.475.218l-.136.01h-2.29a9.196 9.196 0 01-1.844 3.402l-.236.265 1.122 2.001a1.006 1.006 0 01-.207 1.24 12.918 12.918 0 01-3.59 2.099.892.892 0 01-1.053-.303l-.075-.119-1.14-2.033c-.75.285-1.07.01-1.44-.252-.38-.269-.794-.548-1.425-.658l-.22-.03-1.23 1.16-.989 1.762a.907.907 0 01-.487.424.881.881 0 01-.637-.01 12.125 12.125 0 01-3.595-2.102.991.991 0 01-.334-.578 1.009 1.009 0 01.046-.532l.058-.127 1.152-1.995a9.81 9.81 0 01-1.993-3.302l-.125-.37h-2.29a.892.892 0 01-.59-.213.934.934 0 01-.315-.559 13.64 13.64 0 010-4.24.958.958 0 01.317-.575c.13-.113.29-.19.463-.217l.132-.01h2.28a10.147 10.147 0 011.865-3.38l.255-.294-1.153-1.996a.942.942 0 01.223-1.197c1.078-.92 2.29-1.64 3.588-2.133a.946.946 0 01.647 0zm4.102 7.942l-.251.005a4.844 4.844 0 00-3.202 1.418 4.871 4.871 0 00-1.425 3.2c-.061 1.168.3 2.35 1.17 3.368a4.844 4.844 0 006.375-.398 4.883 4.883 0 001.434-3.104c.087-1.14-.224-2.31-1.03-3.375a4.845 4.845 0 00-3.322-1.109zM57.779 40.874a2.4 2.4 0 011.938 2.213l.004.196v4.334a19.888 19.888 0 016.55 3.64l.381.328 3.703-2.147a2.413 2.413 0 012.968.508 27.064 27.064 0 014.88 7.595 2.393 2.393 0 01-.714 2.603l-.155.12-4.26 2.125c.446 2.285.507 4.625.184 6.925l-.082.53 4.158 2.627a2.39 2.39 0 011.02 1.234c.182.497.2 1.054.021 1.584a26.692 26.692 0 01-4.932 7.557 2.415 2.415 0 01-2.78.633l-.188-.091-3.705-2.148a20.333 20.333 0 01-6.425 3.792l-.507.177v4.512a2.409 2.409 0 01-1.924 2.406 25.789 25.789 0 01-8.742 0 2.404 2.404 0 01-1.947-2.216l-.005-.196v-4.448a20.234 20.234 0 01-6.492-3.619l-.407-.347-3.851 2.172a2.41 2.41 0 01-2.966-.506 28.005 28.005 0 01-4.881-7.567 2.402 2.402 0 01.854-2.688l.173-.116 4.25-2.136c-.514-2.463-.549-5-.104-7.472l.103-.53-4.129-2.198a2.4 2.4 0 01-1.029-2.812 27.12 27.12 0 014.876-7.56c.364-.4.84-.653 1.345-.746.438-.08.9-.04 1.33.13l.182.082 3.728 2.142a20.225 20.225 0 016.395-3.79l.506-.178v-4.25a2.398 2.398 0 011.896-2.406 26.006 26.006 0 018.779.002zM53.01 56.5a9.467 9.467 0 00-6.71 2.775 9.458 9.458 0 00-2.801 6.707 9.456 9.456 0 002.77 6.721 9.452 9.452 0 006.734 2.79 9.452 9.452 0 006.718-2.82 9.438 9.438 0 002.778-6.698c0-2.425-.927-4.85-2.78-6.7a9.467 9.467 0 00-6.71-2.775zm33.33-19.945c.163.06.31.165.42.314l.076.119L87.97 39a9.496 9.496 0 013.854-.079l.381.08 1.128-2.008a.906.906 0 011.001-.417c1.3.495 2.512 1.203 3.576 2.09a1.003 1.003 0 01.271 1.118l-.06.128-1.129 2.005a9.22 9.22 0 011.985 3.332l.107.34h2.308a.938.938 0 01.611.216c.168.14.289.338.331.567a13.578 13.578 0 010 4.235.988.988 0 01-.333.583.968.968 0 01-.48.22l-.137.01h-2.297a9.523 9.523 0 01-1.858 3.409l-.235.266 1.131 2.012a.938.938 0 01-.207 1.2 13.057 13.057 0 01-3.61 2.136.95.95 0 01-.627.006.983.983 0 01-.418-.279l-.08-.104-1.115-1.983c-1.266.23-2.56.234-3.825.013l-.42-.082-1.126 2a.97.97 0 01-.506.425.947.947 0 01-.645.004 12.309 12.309 0 01-3.605-2.132.942.942 0 01-.296-1.085l.058-.122 1.161-2.004a10.152 10.152 0 01-2.003-3.31l-.128-.37h-2.26a.938.938 0 01-.523-.255.96.96 0 01-.283-.55 13.393 13.393 0 010-4.22.958.958 0 01.319-.576.926.926 0 01.468-.218l.133-.011h2.292a9.839 9.839 0 011.894-3.411l.237-.268-1.16-2a1 1 0 01.233-1.24 12.234 12.234 0 013.604-2.103.905.905 0 01.655-.014zm3.164 6.945a5.055 5.055 0 00-3.527 1.492 5.065 5.065 0 00-.042 7.106 5.052 5.052 0 003.563 1.402 5.055 5.055 0 003.527-1.492 5.065 5.065 0 00.042-7.106 5.052 5.052 0 00-3.563-1.402z" fill="#838DAA" fill-rule="nonzero" stroke="#EFF2F9"/></svg>
