<svg xmlns="http://www.w3.org/2000/svg" width="132" height="133"><path d="M130.808 66.45c0 36.102-29.273 65.37-65.383 65.37S.043 102.551.043 66.449C.042 30.347 29.316 1.08 65.425 1.08c36.11 0 65.383 29.267 65.383 65.37" fill="#EEF2F9" /><path d="M44.5 41.5c.414 0 .767.122 1.011.36.205.199.326.473.356.796l.008.165v6.033c1.682.396 3.17 1.325 4.194 2.617a6.542 6.542 0 011.431 4.1c0 1.593-.554 3.06-1.473 4.22a6.727 6.727 0 01-3.86 2.418l-.292.055v27.915c0 .394-.125.73-.364.961-.244.238-.597.36-1.011.36-.414 0-.767-.122-1.011-.36-.205-.199-.326-.473-.356-.796l-.008-.165v-27.89c-1.682-.396-3.17-1.325-4.194-2.617a6.542 6.542 0 01-1.431-4.1c0-1.593.554-3.06 1.473-4.22a6.727 6.727 0 013.86-2.418l.292-.055V42.82c0-.394.125-.73.364-.961.244-.237.597-.359 1.011-.359zm0 9.929a4.294 4.294 0 00-2.997 1.211c-.774.752-1.253 1.79-1.253 2.931s.479 2.18 1.253 2.932a4.296 4.296 0 002.997 1.211 4.294 4.294 0 002.997-1.211 4.08 4.08 0 001.253-2.932 4.08 4.08 0 00-1.253-2.931 4.286 4.286 0 00-2.749-1.204h0zm20-9.929c.414 0 .767.122 1.011.36.205.199.326.473.356.796l.008.165v27.89c1.682.396 3.17 1.325 4.194 2.617a6.542 6.542 0 011.431 4.1c0 1.593-.554 3.06-1.473 4.22a6.727 6.727 0 01-3.86 2.418l-.292.055v6.058c0 .394-.125.73-.364.961-.244.238-.597.36-1.011.36-.414 0-.767-.122-1.011-.36-.205-.199-.326-.473-.356-.796l-.008-.165v-6.033c-1.682-.396-3.17-1.325-4.194-2.617a6.542 6.542 0 01-1.431-4.1c0-1.593.554-3.06 1.473-4.22a6.727 6.727 0 013.86-2.418l.292-.055V42.821c0-.394.125-.73.364-.961.244-.238.597-.36 1.011-.36zm0 31.786a4.294 4.294 0 00-2.997 1.211 4.08 4.08 0 00-1.253 2.932 4.08 4.08 0 001.253 2.931 4.296 4.296 0 002.997 1.211 4.294 4.294 0 002.997-1.211c.774-.752 1.253-1.79 1.253-2.931s-.479-2.18-1.253-2.932a4.296 4.296 0 00-2.997-1.211zm20-31.786c.414 0 .767.122 1.011.36.205.199.326.473.356.796l.008.165v6.033c1.682.396 3.17 1.325 4.194 2.617a6.542 6.542 0 011.431 4.1c0 1.593-.554 3.06-1.473 4.22a6.727 6.727 0 01-3.86 2.418l-.292.055v27.915c0 .394-.125.73-.364.961-.244.238-.597.36-1.011.36-.414 0-.767-.122-1.011-.36-.205-.199-.326-.473-.356-.796l-.008-.165v-27.89c-1.682-.396-3.17-1.325-4.194-2.617a6.542 6.542 0 01-1.431-4.1c0-1.593.554-3.06 1.473-4.22a6.727 6.727 0 013.86-2.418l.292-.055V42.82c0-.394.125-.73.364-.961.244-.238.597-.36 1.011-.36zm0 9.929a4.294 4.294 0 00-2.997 1.211c-.774.752-1.253 1.79-1.253 2.931s.479 2.18 1.253 2.932a4.296 4.296 0 002.997 1.211 4.294 4.294 0 002.997-1.211 4.08 4.08 0 001.253-2.932 4.08 4.08 0 00-1.253-2.931 4.296 4.296 0 00-2.997-1.211z" fill="#838DAA" fill-rule="nonzero" stroke="#EFF2F9"/></svg>
